<svg width="1302" height="722" viewBox="0 0 1302 722" fill="none" xmlns="http://www.w3.org/2000/svg">
<path d="M47.6757 158.25C48.3596 153.682 53.732 151.567 57.3458 154.443L216.345 280.995C219.958 283.871 219.103 289.581 214.806 291.273L25.7158 365.716C21.4182 367.408 16.901 363.813 17.5849 359.245L47.6757 158.25Z" fill="#FF8B1A"/>
<path d="M30.6763 180.251C31.3601 175.683 36.7325 173.568 40.3464 176.444L199.351 302.994C202.965 305.87 202.11 311.58 197.812 313.272L8.72163 387.714C4.42394 389.406 -0.0933515 385.811 0.590421 381.243L30.6763 180.251Z" fill="#E67200"/>
<path d="M968 722C968 706.898 965.038 691.944 959.284 677.991C953.53 664.039 945.096 651.361 934.464 640.683C923.831 630.004 911.209 621.533 897.317 615.754C883.425 609.975 868.536 607 853.5 607C838.464 607 823.575 609.975 809.683 615.754C795.791 621.533 783.169 630.004 772.536 640.683C761.904 651.361 753.47 664.039 747.716 677.991C741.962 691.944 739 706.898 739 722L853.5 722H968Z" fill="#FFBF7D"/>
<path d="M1302 229C1271.77 229 1242.77 216.937 1221.39 195.464C1200.01 173.991 1188 144.867 1188 114.5C1188 84.1327 1200.01 55.0092 1221.39 33.5363C1242.77 12.0634 1271.77 8.26864e-06 1302 5.00495e-06L1302 114.5L1302 229Z" fill="#FF9595"/>
</svg>
