<svg width="1300" height="327" viewBox="0 0 1300 327" fill="none" xmlns="http://www.w3.org/2000/svg">
<path d="M47.1007 97.209C47.7839 92.6426 53.1502 90.5285 56.7599 93.4036L215.578 219.901C219.187 222.776 218.333 228.483 214.041 230.175L25.1658 304.586C20.8731 306.277 16.361 302.684 17.0441 298.118L47.1007 97.209Z" fill="#FF8B1A"/>
<path d="M30.1207 119.2C30.8037 114.634 36.17 112.52 39.7798 115.395L198.604 241.891C202.214 244.765 201.36 250.473 197.066 252.164L8.19094 326.574C3.89813 328.266 -0.614029 324.672 0.0689667 320.106L30.1207 119.2Z" fill="#E67200"/>
<path d="M1300 0H1260.05V110.953H1300V0Z" fill="#D9D9D9" fill-opacity="0.01"/>
</svg>
