<svg width="1394" height="671" viewBox="0 0 1394 671" fill="none" xmlns="http://www.w3.org/2000/svg">
<path d="M1040 671C1040 655.898 1037.04 640.944 1031.28 626.991C1025.53 613.039 1017.1 600.361 1006.46 589.683C995.831 579.004 983.209 570.533 969.317 564.754C955.425 558.975 940.536 556 925.5 556C910.464 556 895.575 558.975 881.683 564.754C867.791 570.533 855.169 579.004 844.536 589.683C833.904 600.361 825.47 613.039 819.716 626.991C813.962 640.944 811 655.898 811 671L925.5 671H1040Z" fill="#FFBF7D"/>
<rect width="40" height="111" fill="#D9D9D9" fill-opacity="0.01"/>
<rect x="1354" width="40" height="111" fill="#D9D9D9" fill-opacity="0.01"/>
</svg>
