<svg width="34" height="34" viewBox="0 0 34 34" fill="none" xmlns="http://www.w3.org/2000/svg">
<path fill-rule="evenodd" clip-rule="evenodd" d="M4.58953 17.5644C4.37315 17.1634 4.37315 16.6769 4.58953 16.2758C7.19708 11.4535 12.0139 7.27344 16.8307 7.27344C21.6475 7.27344 26.4643 11.4535 29.0718 16.2772C29.2882 16.6783 29.2882 17.1648 29.0718 17.5658C26.4643 22.3881 21.6475 26.5682 16.8307 26.5682C12.0139 26.5682 7.19708 22.3881 4.58953 17.5644Z" stroke="#828282" stroke-width="2.06729" stroke-linecap="round" stroke-linejoin="round"/>
<path d="M19.754 13.9981C21.3686 15.6128 21.3686 18.2306 19.754 19.8453C18.1393 21.4599 15.5214 21.4599 13.9068 19.8453C12.2921 18.2306 12.2921 15.6128 13.9068 13.9981C15.5214 12.3834 18.1393 12.3834 19.754 13.9981" stroke="#828282" stroke-width="1.96889" stroke-linecap="round" stroke-linejoin="round"/>
</svg>
