<svg width="30" height="30" viewBox="0 0 30 30" fill="none" xmlns="http://www.w3.org/2000/svg">
<circle cx="15" cy="15" r="15" fill="#D9D9D9"/>
<path fill-rule="evenodd" clip-rule="evenodd" d="M26 14.7614C26 13.946 25.9286 13.1619 25.7959 12.4092H15.2245V16.8576H21.2653C21.0051 18.2951 20.2143 19.513 19.0255 20.3285V23.2139H22.6531C24.7755 21.2119 26 18.2637 26 14.7614Z" fill="#4285F4"/>
<path fill-rule="evenodd" clip-rule="evenodd" d="M15.2245 26C18.2551 26 20.7959 24.9703 22.6531 23.2139L19.0255 20.3285C18.0204 21.0185 16.7347 21.4261 15.2245 21.4261C12.301 21.4261 9.82654 19.4032 8.94389 16.685H5.19388V19.6645C7.04082 23.423 10.8367 26 15.2245 26Z" fill="#34A853"/>
<path fill-rule="evenodd" clip-rule="evenodd" d="M8.94389 16.685C8.7194 15.995 8.59184 15.258 8.59184 14.5001C8.59184 13.7421 8.71939 13.0051 8.94388 12.3151V9.33552H5.19388C4.43367 10.888 4 12.6444 4 14.5001C4 16.3557 4.43368 18.112 5.19388 19.6645L8.94389 16.685Z" fill="#FBBC05"/>
<path fill-rule="evenodd" clip-rule="evenodd" d="M15.2245 7.57387C16.8725 7.57387 18.3521 8.15409 19.5153 9.29364L22.7347 5.99523C20.7908 4.13955 18.25 3 15.2245 3C10.8367 3 7.04082 5.57711 5.19388 9.33552L8.94388 12.3151C9.82653 9.59688 12.301 7.57387 15.2245 7.57387Z" fill="#EA4335"/>
</svg>
