<svg width="16" height="17" viewBox="0 0 16 17" fill="none" xmlns="http://www.w3.org/2000/svg">
<path d="M8.00004 11.1663C9.4728 11.1663 10.6667 9.97243 10.6667 8.49967C10.6667 7.02692 9.4728 5.83301 8.00004 5.83301C6.52728 5.83301 5.33337 7.02692 5.33337 8.49967C5.33337 9.97243 6.52728 11.1663 8.00004 11.1663Z" stroke="#FFA54C" stroke-width="1.33333" stroke-linecap="round" stroke-linejoin="round"/>
<path d="M10.6667 5.83333V9.16666C10.6667 9.69709 10.8774 10.2058 11.2524 10.5809C11.6275 10.9559 12.1362 11.1667 12.6667 11.1667C13.1971 11.1667 13.7058 10.9559 14.0809 10.5809C14.4559 10.2058 14.6667 9.69709 14.6667 9.16666V8.49999C14.6666 6.99535 14.1575 5.53498 13.2222 4.35635C12.2869 3.17772 10.9804 2.35014 9.51508 2.00819C8.0498 1.66624 6.51194 1.83002 5.15155 2.4729C3.79116 3.11579 2.68825 4.19996 2.02216 5.54914C1.35606 6.89832 1.16596 8.43315 1.48276 9.90407C1.79957 11.375 2.60464 12.6955 3.76707 13.6508C4.92951 14.6062 6.38094 15.1402 7.88537 15.1661C9.38979 15.192 10.8587 14.7082 12.0533 13.7933" stroke="#FFA54C" stroke-width="1.33333" stroke-linecap="round" stroke-linejoin="round"/>
</svg>
